<svg id="Layer_1" data-name="Layer 1" xmlns="http://www.w3.org/2000/svg" viewBox="0 0 29.38 26.59"><defs><style>.cls-1{fill:#fff;}</style></defs><title>eventify_icon</title><path class="cls-1" d="M29,7.45C30.89,14,19.24,22.93,14.41,25.53a7.09,7.09,0,0,1-8.24-1c-3.07-2.77-4.68-9-4.68-9S-.53,9.47.55,5.48A7,7,0,0,1,6.92.17C12.38-.27,27,.87,29,7.45Zm-8.36,5.18a9.27,9.27,0,0,0-.53-3.27,7.06,7.06,0,0,0-1.47-2.43A6.24,6.24,0,0,0,16.32,5.4a7.51,7.51,0,0,0-2.89-.53,8.42,8.42,0,0,0-3,.54A7.27,7.27,0,0,0,8,6.94,7.08,7.08,0,0,0,6.33,9.35a7.9,7.9,0,0,0-.61,3.17,7.87,7.87,0,0,0,.62,3.2A6.7,6.7,0,0,0,8,18.09a7.3,7.3,0,0,0,2.51,1.46,9.17,9.17,0,0,0,3,.5,8.71,8.71,0,0,0,3.83-.79A6.52,6.52,0,0,0,20.05,17L16.78,15A3.69,3.69,0,0,1,15.52,16a4,4,0,0,1-1.89.41,3.85,3.85,0,0,1-1.22-.2,3.71,3.71,0,0,1-1.06-.56,3.23,3.23,0,0,1-.77-.84,2.56,2.56,0,0,1-.36-1.09H20.57c0-.17,0-.35,0-.55v-.57m-10.37-1.8a2.58,2.58,0,0,1,.29-1.05,2.77,2.77,0,0,1,.69-.87,3.11,3.11,0,0,1,1-.59,3.62,3.62,0,0,1,1.26-.22,2.66,2.66,0,0,1,2.11.81,2.84,2.84,0,0,1,.7,1.92Z"/></svg>